<svg id="Layer_1" data-name="Layer 1" xmlns="http://www.w3.org/2000/svg" viewBox="0 0 356 422"><defs><style>.cls-1{opacity:0.1;}.cls-2{fill:#ffce00;}.cls-3{fill:#ffc400;}.cls-4{fill:#fff;opacity:0.3;}</style></defs><title>bolt</title><g class="cls-1"><polygon points="356 0 356 13 221 148 291 135 0 422 0 413 143 162 82 184 356 0"/></g><polygon class="cls-2" points="147 147 87 168 179 24 342 6 199 150 270 136 20 386 147 147"/><path class="cls-3" d="M329,13L207,135l-23,23,32-6,39-7L40,359,145,161l12-23-24,9-33,12L182,28,329,13M356,0L176,19,75,178l61-22L0,413,285,128l-71,13L356,0h0Z"/><polygon class="cls-3" points="176 19 258 11 148 164 171 158 0 413 136 156 75 178 176 19"/><polygon class="cls-4" points="304 52 119 109 132 88 326 28 304 52"/><polygon class="cls-4" points="288 68 109 123 113 119 292 64 288 68"/></svg>