<?xml version="1.0" encoding="utf-8"?>
<!-- Generator: Adobe Illustrator 19.2.1, SVG Export Plug-In . SVG Version: 6.00 Build 0)  -->
<svg version="1.1" id="Layer_1" xmlns="http://www.w3.org/2000/svg" xmlns:xlink="http://www.w3.org/1999/xlink" x="0px" y="0px" viewBox="0 0 490.8 217.4" style="enable-background:new 0 0 490.8 217.4;" xml:space="preserve"
	>
<style type="text/css">
	.st0{opacity:0.1;}
	.st1{fill:#FFFFFF;}
	.st2{fill:#FFCE00;}
	.st3{fill:#FFC400;}
	.st4{opacity:0.3;fill:#FFFFFF;enable-background:new    ;}
</style>
<title>logo</title>
<g class="st0">
	<path d="M213.4,104.9l-4.1,10.5c-0.8,2-2.3,3.5-4.3,4.3c-2.2,0.8-4.4,1.3-6.7,1.4c4.3,0.9,6.4,3.1,6.1,6.6l-4.1,10.4
		c-0.9,2.3-2.3,4.3-4.2,5.9c-1.8,1.7-4.2,2.7-6.7,2.8h-41.6l10.3-10.3l12.6-31.6l-6.7-7.6h42.5L213.4,104.9z M188.6,126.4h-9.7
		l-4.1,10.4h9.6L188.6,126.4z M195.9,107.6h-9.5l-3.7,9.3h9.5L195.9,107.6z"/>
	<path d="M266.1,97.2l-6,15.3h-14.2l2.2-5.4h-9.6l-3.7,9.4h13l-3.7,9.3H231l-4.2,10.6h9.6l2.6-6.6h14.2l-2.9,7.3
		c-1,2.9-2.9,5.3-5.4,7c-2.8,1.7-7,2.5-12.6,2.5l-32.3,0.1l10.3-10.3l12.6-31.6l-6.7-7.6L266.1,97.2L266.1,97.2z"/>
	<path d="M320.6,97.2l-3.6,10H312l-4.8,29.6h5.1l-1.1,2.7c-1.1,2.7-2.4,4.5-4,5.4c-2.1,1.2-5.8,1.9-11.1,1.9h-8.8l2.8-12.9h-9.5
		l-7.3,12.9h-23.8l10.6-8.2l21.7-33.7l-5.8-7.6L320.6,97.2L320.6,97.2z M296.2,106.7l-9.8,17.3h6.1L296.2,106.7z"/>
	<path d="M374.2,104.7l-3.1,7.8h-16.5l2-5.2h-9l-11.7,29.2h9.1l2.7-6.7h16.6l-3.2,7.9c-1,2.5-2.7,4.6-4.8,6.2
		c-2.1,1.8-4.7,2.8-7.5,2.8h-24.1l-6.2-7.7l13.8-34.6c0.8-2.1,2.7-3.9,5.6-5.3c2.4-1.2,5.1-1.9,7.9-1.9H368L374.2,104.7z"/>
	<path d="M422.4,104.7l-13,33c-1,2.4-2.7,4.6-4.8,6.2c-2.1,1.8-4.8,2.8-7.5,2.9H373l-6.2-7.7l13.8-34.6c0.8-2.1,2.7-3.9,5.6-5.3
		c2.4-1.2,5.1-1.9,7.9-1.9h22.1L422.4,104.7z M405,107.3h-9.1l-11.7,29.2h9.1L405,107.3z"/>
	<path d="M486.8,97.2l-4.4,10.6h-3.5l-11.5,29c-1.6,3.7-3.1,6.2-4.5,7.4c-1.9,1.7-4.6,2.5-8.2,2.5h-7l-5.9-25.2l-10.1,25.2h-21.8
		l10.3-10.3l12.5-31.6l-6.7-7.6H451l6.1,24.6l9.6-24.6L486.8,97.2L486.8,97.2z"/>
</g>
<path class="st1" d="M212.9,101.3l-4.1,10.5c-0.8,2-2.3,3.5-4.3,4.3c-2.2,0.8-4.4,1.3-6.7,1.4c4.3,0.9,6.4,3.1,6.1,6.6l-4.1,10.4
	c-0.9,2.3-2.3,4.3-4.2,5.9c-1.8,1.7-4.2,2.7-6.7,2.8h-41.5l10.3-10.3l12.5-31.6l-6.7-7.6H206L212.9,101.3z M188,122.8h-9.7
	l-4.1,10.5h9.6L188,122.8z M195.4,104h-9.5l-3.7,9.3h9.5L195.4,104z"/>
<path class="st1" d="M265.6,93.6l-6,15.3h-14.2l2.2-5.4H238l-3.7,9.4h13l-3.7,9.3h-13l-4.2,10.6h9.6l2.6-6.6h14.2l-2.9,7.3
	c-1,2.9-2.9,5.3-5.4,7c-2.8,1.7-7,2.5-12.7,2.5l-32.3,0.1l10.3-10.3l12.5-31.6l-6.7-7.6L265.6,93.6L265.6,93.6z"/>
<path class="st1" d="M320,93.6l-3.6,10h-4.9l-4.8,29.6h5.1l-1.1,2.7c-1.1,2.7-2.4,4.5-4,5.4c-2.1,1.2-5.8,1.9-11.1,1.9h-8.8
	l2.8-12.9h-9.5l-7.3,12.9h-23.8l10.6-8.2l21.7-33.7l-5.8-7.6C275.6,93.6,320,93.6,320,93.6z M295.7,103l-9.8,17.4h6.1L295.7,103z"/>
<path class="st1" d="M373.7,101.1l-3.1,7.8H354l2-5.2h-9L335.3,133h9.1l2.7-6.7h16.6l-3.2,7.8c-1,2.5-2.7,4.6-4.8,6.2
	c-2.1,1.8-4.7,2.8-7.5,2.8H324l-6.2-7.7l13.8-34.6c0.8-2.1,2.7-3.9,5.6-5.3c2.4-1.2,5.1-1.9,7.9-1.9h22.4L373.7,101.1z"/>
<path class="st1" d="M421.9,101.1l-13,33c-1,2.4-2.7,4.6-4.8,6.2c-2.1,1.8-4.8,2.8-7.5,2.9h-24.1l-6.2-7.7l13.8-34.6
	c0.8-2.1,2.7-3.9,5.6-5.3c2.5-1.2,5.2-1.9,7.9-1.9h22.1L421.9,101.1z M404.5,103.7h-9.1L383.8,133h9.1L404.5,103.7z"/>
<path class="st1" d="M485.3,93.6l-4.4,10.6h-3.5l-11.5,29c-1.6,3.7-3.1,6.2-4.5,7.4c-1.9,1.7-4.6,2.5-8.2,2.5h-7l-5.9-25.2
	l-10.1,25.2h-21.8l10.3-10.3l12.6-31.6l-6.7-7.6h25.1l6.1,24.6l9.6-24.6L485.3,93.6L485.3,93.6z"/>
<g class="st0">
	<polygon points="256.1,0 256.1,6.6 186.5,76.2 222.8,69.3 72.7,217.4 72.7,212.8 146.3,83.5 114.9,94.9 	"/>
</g>
<polygon class="st2" points="148.3,75.6 117.7,86.8 164.9,12.2 249.1,3.3 175.3,77.1 211.6,70.2 83,198.9 "/>
<path class="st3" d="M242.1,6.7l-62.7,62.7l-11.8,11.8l16.4-3.1l19.9-3.8L93.3,184.9l54.1-102.2l6.3-11.9l-12.6,4.6L124,81.7
	l42.5-67.1L242.1,6.7 M256.1,0l-92.7,9.8l-51.9,82l31.4-11.5L72.7,212.8L219.4,66.2L183,73l73-73l0,0L256.1,0z"/>
<polygon class="st3" points="163.4,9.8 205.8,5.6 148.9,84.6 160.8,81.6 72.7,212.8 142.9,80.3 111.5,91.8 "/>
<polygon class="st4" points="229.2,26.9 134.2,56 140.7,45.2 240.8,14.5 "/>
<polygon class="st4" points="221,35.3 129.1,63.5 130.9,61.1 223.3,32.8 "/>
<path class="st0" d="M30,116.5l-8.3,20.6h5l-1.1,2.7c-1.9,4.6-5.6,6.9-11.2,6.9H0.5c1.4-1.2,4.2-3.9,8.4-8.2l6-15.5l-5.2-6.5
	L30,116.5L30,116.5z M36,101.8l-1.4,3.2c-2.2,4.5-6,6.8-11.2,6.8h-4l4.1-10L36,101.8L36,101.8z"/>
<path class="st0" d="M88.9,104.7l-3.2,7.8H69.3l2-5.2h-9l-11.7,29.3h9.1l2.7-6.7h16.6l-3.2,7.9c-1,2.5-2.7,4.6-4.8,6.2
	c-2.1,1.8-4.7,2.8-7.5,2.8H39.3L33,139l13.8-34.6c0.8-2.1,2.7-3.9,5.6-5.3c2.4-1.2,5.1-1.9,7.8-1.9h22.4L88.9,104.7z"/>
<path class="st0" d="M141.4,97.2l-6,15.3h-14.2l2.2-5.4h-9.6l-3.7,9.4h13l-3.7,9.3h-13l-4.2,10.6h9.6l2.6-6.6h14.2l-2.9,7.3
	c-1,2.9-2.9,5.3-5.4,7c-2.8,1.7-7,2.5-12.6,2.5l-32.3,0.1l10.3-10.3l12.5-31.7l-6.7-7.6L141.4,97.2L141.4,97.2z"/>
<path class="st1" d="M29.4,112.9l-8.3,20.6h5l-1.1,2.7c-1.9,4.6-5.6,6.9-11.2,6.9H0c1.4-1.2,4.2-3.9,8.4-8.2l6-15.5l-5.2-6.5H29.4z
	 M35.4,98.2l-1.4,3.1c-2.2,4.5-6,6.8-11.2,6.8h-4l4.1-10L35.4,98.2L35.4,98.2z"/>
<path class="st1" d="M88.4,101.1l-3.2,7.8H68.8l2-5.2h-9.1L50,133h9.1l2.7-6.7h16.6l-3.2,7.8c-1,2.5-2.7,4.6-4.8,6.2
	c-2.1,1.8-4.7,2.8-7.5,2.8H38.8l-6.2-7.7l13.8-34.6c0.8-2.1,2.7-3.9,5.6-5.3c2.4-1.2,5.1-1.9,7.8-1.9h22.4L88.4,101.1z"/>
<path class="st1" d="M140.9,93.6l-6,15.3h-14.2l2.2-5.4h-9.6l-3.7,9.4h13l-3.7,9.3h-13l-4.2,10.6h9.6l2.6-6.6H128l-2.9,7.3
	c-1,2.9-2.9,5.3-5.4,7c-2.8,1.7-7,2.5-12.6,2.5l-32.3,0.1L85,132.8l12.6-31.6l-6.7-7.6C90.8,93.6,140.9,93.6,140.9,93.6z"/>
</svg>
