<svg id="Layer_1" data-name="Layer 1" xmlns="http://www.w3.org/2000/svg" viewBox="0 0 490.79 217.44"><defs><style>.cls-1{opacity:0.1;}.cls-2,.cls-5{fill:#fff;}.cls-3{fill:#ffce00;}.cls-4{fill:#ffc400;}.cls-5{opacity:0.3;}</style></defs><title>logo</title><g class="cls-1"><path d="M29.95,112.54l-8.29,20.59h4.95l-1.11,2.74q-2.78,6.85-11.25,6.85H0.52q2.05-1.8,8.4-8.2l6-15.51-5.22-6.46H29.95Zm6-14.78-1.42,3.15q-3.34,6.8-11.25,6.8h-4l4.08-10H35.95Z"/><path d="M88.94,100.67l-3.15,7.85H69.27l2-5.19H62.23L50.54,132.58h9.09l2.72-6.74H78.92l-3.22,7.85a14.94,14.94,0,0,1-4.82,6.18,12.07,12.07,0,0,1-7.48,2.84H39.29L33,135l13.79-34.55q1.24-3.16,5.63-5.32a17.62,17.62,0,0,1,7.85-1.92H82.69Z"/><path d="M141.43,93.19l-6,15.27H121.21l2.16-5.38h-9.58l-3.71,9.4h13l-3.71,9.28h-13l-4.2,10.57h9.58l2.6-6.55h14.22l-2.91,7.3a13.56,13.56,0,0,1-5.44,7q-4.14,2.54-12.61,2.54l-32.34.12,10.33-10.28L98.09,100.8l-6.74-7.62h50.09Z"/><path d="M213.41,100.87l-4.08,10.46a7.72,7.72,0,0,1-4.27,4.33,25.14,25.14,0,0,1-6.74,1.42q6.49,1.36,6.12,6.56L200.3,134a15.18,15.18,0,0,1-4.2,5.88,10.12,10.12,0,0,1-6.68,2.79H147.86l10.33-10.28,12.55-31.64L164,93.19h42.48Zm-24.86,21.51h-9.71l-4.14,10.45h9.65Zm7.36-18.8h-9.52l-3.71,9.34h9.46Z"/><path d="M266.15,93.19l-6,15.27H245.93l2.16-5.38h-9.58l-3.71,9.4h13l-3.71,9.28H231l-4.2,10.57h9.58l2.6-6.55h14.22l-2.91,7.3a13.56,13.56,0,0,1-5.44,7q-4.14,2.54-12.61,2.54l-32.34.12,10.33-10.28,12.55-31.64-6.74-7.62h50.09Z"/><path d="M320.57,93.19l-3.65,10H312l-4.76,29.56h5.13l-1.11,2.72q-1.67,4.08-4,5.44-3.15,1.86-11.07,1.86h-8.78l2.84-12.92h-9.52l-7.3,12.92H249.64l10.57-8.23,21.7-33.68-5.81-7.62h44.46Zm-24.36,9.46L286.37,120h6.06Z"/><path d="M376.22,100.67l-3.15,7.85H356.55l2-5.19H349.5l-11.69,29.25h9.09l2.72-6.74H366.2L363,133.69a15,15,0,0,1-4.82,6.18,12.07,12.07,0,0,1-7.48,2.84H326.56L320.32,135l13.79-34.55q1.24-3.16,5.63-5.32a17.62,17.62,0,0,1,7.85-1.92H370Z"/><path d="M427.41,100.68l-13,33a15.13,15.13,0,0,1-4.76,6.19,12.31,12.31,0,0,1-7.54,2.85H378L371.76,135l13.79-34.55q1.24-3.16,5.56-5.32A18,18,0,0,1,399,93.19h22.07ZM410,103.33h-9.09l-11.69,29.25h9.09Z"/><path d="M490.79,93.19l-4.39,10.57h-3.52l-11.5,29q-2.41,5.57-4.51,7.43-2.78,2.54-8.22,2.54h-7l-5.94-25.23-10.08,25.23H413.81l10.33-10.28,12.55-31.64-6.74-7.62h25.1l6.12,24.61,9.58-24.61h20Z"/></g><path class="cls-2" d="M29.43,108.94l-8.29,20.59h4.95L25,132.26q-2.78,6.85-11.25,6.85H0q2.05-1.8,8.4-8.2l6-15.51-5.22-6.46H29.43Zm6-14.78L34,97.31q-3.34,6.8-11.25,6.8h-4l4.08-10H35.43Z"/><path class="cls-2" d="M88.42,97.06l-3.15,7.85H68.76l2-5.19H61.71L50,129h9.09l2.72-6.74H78.41l-3.22,7.85a14.94,14.94,0,0,1-4.82,6.18,12.07,12.07,0,0,1-7.48,2.84H38.77l-6.25-7.74L46.31,96.82q1.24-3.16,5.63-5.32a17.62,17.62,0,0,1,7.85-1.92H82.18Z"/><path class="cls-2" d="M140.92,89.58l-6,15.27H120.7l2.16-5.38h-9.58l-3.71,9.4h13l-3.71,9.28h-13l-4.2,10.57h9.58l2.6-6.55H128l-2.91,7.3a13.56,13.56,0,0,1-5.44,7Q115.5,139,107,139l-32.34.12L85,128.83,97.57,97.2l-6.74-7.62h50.09Z"/><path class="cls-2" d="M212.89,97.26l-4.08,10.46a7.72,7.72,0,0,1-4.27,4.33,25.15,25.15,0,0,1-6.74,1.42q6.49,1.36,6.12,6.56l-4.14,10.4a15.18,15.18,0,0,1-4.2,5.88,10.12,10.12,0,0,1-6.68,2.79H147.35l10.33-10.28L170.23,97.2l-6.74-7.62H206ZM188,118.77h-9.71l-4.14,10.45h9.65Zm7.36-18.8h-9.52l-3.71,9.34h9.46Z"/><path class="cls-2" d="M265.64,89.58l-6,15.27H245.42l2.16-5.38H238l-3.71,9.4h13l-3.71,9.28h-13l-4.2,10.57h9.58l2.6-6.55h14.22l-2.91,7.3a13.56,13.56,0,0,1-5.44,7Q240.22,139,231.75,139l-32.34.12,10.33-10.28L222.29,97.2l-6.74-7.62h50.09Z"/><path class="cls-2" d="M320,89.58l-3.65,10h-4.88l-4.76,29.56h5.13l-1.11,2.72q-1.67,4.08-4,5.44-3.15,1.86-11.07,1.86h-8.78l2.84-12.92h-9.52l-7.3,12.92H249.13l10.57-8.23L281.4,97.2l-5.81-7.62H320ZM295.69,99l-9.83,17.38h6.06Z"/><path class="cls-2" d="M375.7,97.06l-3.15,7.85H356l2-5.19H349L337.3,129h9.09l2.72-6.74h16.57l-3.21,7.85a15,15,0,0,1-4.82,6.18,12.07,12.07,0,0,1-7.48,2.84H326l-6.25-7.74,13.79-34.55q1.24-3.16,5.63-5.32a17.62,17.62,0,0,1,7.85-1.92h22.38Z"/><path class="cls-2" d="M426.9,97.07l-13,33a15.13,15.13,0,0,1-4.76,6.19,12.31,12.31,0,0,1-7.54,2.85H377.49l-6.25-7.74L385,96.82q1.24-3.16,5.56-5.32a18,18,0,0,1,7.91-1.92h22.07Zm-17.38,2.65h-9.09L388.75,129h9.09Z"/><path class="cls-2" d="M490.28,89.58l-4.39,10.57h-3.52l-11.5,29q-2.41,5.57-4.51,7.43-2.78,2.54-8.22,2.54h-7l-5.94-25.23-10.08,25.23H413.29l10.33-10.28L436.17,97.2l-6.74-7.62h25.1l6.12,24.61,9.58-24.61h20Z"/><g class="cls-1"><polygon points="254.07 0 254.07 6.6 184.46 76.21 220.79 69.33 70.69 217.44 70.69 212.83 144.3 83.48 112.94 94.95 254.07 0"/></g><polygon class="cls-3" points="146.29 75.59 115.74 86.76 162.94 12.24 247.1 3.33 173.29 77.14 209.62 70.25 80.99 198.88 146.29 75.59"/><path class="cls-4" d="M240.12,6.66L177.38,69.4,165.55,81.23,182,78.11l19.9-3.77L91.3,184.93l54.13-102.2,6.29-11.87L139.1,75.47,122,81.74l42.47-67.06,75.67-8m14-6.66L161.43,9.81l-51.92,82,31.36-11.47L70.69,212.83,217.36,66.16,181,73l73-73h0Z"/><polygon class="cls-4" points="161.43 9.81 203.82 5.63 146.92 84.62 158.84 81.56 70.69 212.83 140.87 80.31 109.51 91.79 161.43 9.81"/><polygon class="cls-5" points="227.21 26.86 132.16 56.01 138.73 45.2 238.84 14.5 227.21 26.86"/><polygon class="cls-5" points="219.03 35.26 127.07 63.46 128.94 61.1 221.3 32.77 219.03 35.26"/></svg>